# xmcd
#
# Track frame offsets:
#	150
#	10777
#	22915
#	43592
#	56872
#	69662
#	84282
#	101207
#	117067
#	132497
#	148592
#	173015
#	186185
#	206545
#	227722
#
# Disc length: 3264 seconds
#
# Revision: 1
# Processed by: cddbd v1.5.2PL0 Copyright (c) Steve Scherf et al.
# Submitted via: audiograbber 1.83.01
#
DISCID=ca0cbe0f
DTITLE=Various Artist - The Last Soul Company Disc 1
DYEAR=1900
DGENRE=Blues
TTITLE0=Haran Griffin - Looking For My Pig
TTITLE1=Eddie Houston - I Can't Go Wrong
TTITLE2=Fred McDowell - Red Cross Store
TTITLE3=Betty and Charles - You Can't Find Love
TTITLE4=King Floyd - Baby Let Me Kiss You
TTITLE5=Mighty Sam McClain - Mr. and Mrs. Untrue
TTITLE6=Dorothy Moore - For Old Time's Sake
TTITLE7=McKinley Mitchell - Trouble Blues
TTITLE8=Fern Kinney and Frederick Knight - Sweet Life
TTITLE9=Ruby Wilson - Seeing You Again
TTITLE10=G. C. Cameron - Night Like This In Georgia
TTITLE11=Z. Z. Hill - Shade Tree Mechanic
TTITLE12=Formula V - Part Time Lover
TTITLE13=Latimore - Bad Risk
TTITLE14=Mosley and Johnson - Rock Me
EXTD=
EXTT0=
EXTT1=
EXTT2=
EXTT3=
EXTT4=
EXTT5=
EXTT6=
EXTT7=
EXTT8=
EXTT9=
EXTT10=
EXTT11=
EXTT12=
EXTT13=
EXTT14=
PLAYORDER=
